<svg xmlns="http://www.w3.org/2000/svg" x="0px" y="0px"
width="120" height="120"
viewBox="0 0 172 172"
style=" fill:#000000;"><g fill="none" fill-rule="nonzero" stroke="none" stroke-width="1" stroke-linecap="butt" stroke-linejoin="miter" stroke-miterlimit="10" stroke-dasharray="" stroke-dashoffset="0" font-family="none" font-weight="none" font-size="none" text-anchor="none" style="mix-blend-mode: normal"><path d="M0,172v-172h172v172z" fill="none"></path><g><path d="M155.56683,59.43317c-2.24675,-2.24675 -15.6735,-15.6735 -17.91667,-17.91667c-2.79858,-2.79858 -7.33508,-2.79858 -10.13367,0c-2.79858,2.79858 -2.79858,7.33508 0,10.13367l-10.99725,10.99725c-3.913,-2.48325 -8.12342,-4.52575 -12.60258,-6.00567v-31.55842c3.956,0 7.16667,-3.21067 7.16667,-7.16667c0,-3.956 -3.21067,-7.16667 -7.16667,-7.16667h-35.83333c-3.956,0 -7.16667,3.21067 -7.16667,7.16667c0,3.956 3.21067,7.16667 7.16667,7.16667v31.55125c-9.65708,3.18917 -18.189,8.87233 -24.81817,16.31133c-9.07658,10.18742 -14.5985,23.64283 -14.5985,38.39183c0,17.61208 7.8905,33.3465 20.296,43.89942c4.69058,3.99542 10.74283,6.01283 16.89183,6.01283h40.291c6.149,0 12.20125,-2.01742 16.89183,-6.00925c12.4055,-10.5565 20.296,-26.29092 20.296,-43.903c0,-11.32333 -3.28233,-21.8655 -8.90458,-30.77008l11.00083,-11.00083c2.79858,2.79858 7.33508,2.79858 10.13367,0c2.80217,-2.79858 2.80217,-7.33508 0.00358,-10.13367z" fill="#90caf9"></path><path d="M36.00892,107.5c-0.09675,1.27567 -0.17558,2.55133 -0.17558,3.83775c0,14.82425 6.47867,28.83508 17.76975,38.442c3.26442,2.7735 7.61458,4.30358 12.25142,4.30358h40.291c4.63683,0 8.987,-1.53008 12.24783,-4.30358c11.29467,-9.60692 17.77333,-23.61775 17.77333,-38.442c0,-1.28642 -0.07525,-2.56567 -0.172,-3.83775z" fill="#ff5f9a"></path><path d="M96.75,86c-3.95804,0 -7.16667,3.20863 -7.16667,7.16667c0,3.95804 3.20863,7.16667 7.16667,7.16667c3.95804,0 7.16667,-3.20863 7.16667,-7.16667c0,-3.95804 -3.20863,-7.16667 -7.16667,-7.16667zM80.625,64.5c-2.96853,0 -5.375,2.40647 -5.375,5.375c0,2.96853 2.40647,5.375 5.375,5.375c2.96853,0 5.375,-2.40647 5.375,-5.375c0,-2.96853 -2.40647,-5.375 -5.375,-5.375z" fill="#e3f2fd"></path><path d="M100.33333,121.83333c-5.93706,0 -10.75,4.81294 -10.75,10.75c0,5.93706 4.81294,10.75 10.75,10.75c5.93706,0 10.75,-4.81294 10.75,-10.75c0,-5.93706 -4.81294,-10.75 -10.75,-10.75z" fill="#f48fb1"></path><path d="M68.08333,114.66667c-3.95804,0 -7.16667,3.20863 -7.16667,7.16667c0,3.95804 3.20863,7.16667 7.16667,7.16667c3.95804,0 7.16667,-3.20863 7.16667,-7.16667c0,-3.95804 -3.20863,-7.16667 -7.16667,-7.16667z" fill="#f8bbd0"></path></g></g></svg>